<svg id="visual" viewBox="0 0 960 540" width="960" height="540" xmlns="http://www.w3.org/2000/svg" xmlns:xlink="http://www.w3.org/1999/xlink" version="1.1"><rect x="0" y="0" width="960" height="540" fill="#CCCCCC"></rect><defs><linearGradient id="grad1_0" x1="43.8%" y1="0%" x2="100%" y2="100%"><stop offset="14.444444444444446%" stop-color="#cccccc" stop-opacity="1"></stop><stop offset="85.55555555555554%" stop-color="#cccccc" stop-opacity="1"></stop></linearGradient></defs><defs><linearGradient id="grad2_0" x1="0%" y1="0%" x2="56.3%" y2="100%"><stop offset="14.444444444444446%" stop-color="#cccccc" stop-opacity="1"></stop><stop offset="85.55555555555554%" stop-color="#cccccc" stop-opacity="1"></stop></linearGradient></defs><g transform="translate(960, 0)"><path d="M0 540C-122.6 542.1 -245.3 544.3 -270 467.7C-294.7 391 -221.6 235.6 -250.3 144.5C-279 53.4 -409.5 26.7 -540 0L0 0Z" fill="#2b7c52"></path></g><g transform="translate(0, 540)"><path d="M0 -540C110.3 -535 220.5 -530 270 -467.7C319.5 -405.3 308.1 -285.5 342.9 -198C377.8 -110.5 458.9 -55.2 540 0L0 0Z" fill="#2b7c52"></path></g></svg>