<svg id="visual" viewBox="0 0 960 540" width="960" height="540" xmlns="http://www.w3.org/2000/svg" xmlns:xlink="http://www.w3.org/1999/xlink" version="1.1"><rect x="0" y="0" width="960" height="540" fill="#CCCCCC"></rect><path d="M0 152L10 162.7C20 173.3 40 194.7 60 203.8C80 213 100 210 120 201.2C140 192.3 160 177.7 180 162.3C200 147 220 131 240 128.8C260 126.7 280 138.3 300 135.8C320 133.3 340 116.7 360 126.7C380 136.7 400 173.3 420 182.8C440 192.3 460 174.7 480 169C500 163.3 520 169.7 540 166.7C560 163.7 580 151.3 600 156.8C620 162.3 640 185.7 660 193C680 200.3 700 191.7 720 193.8C740 196 760 209 780 192.5C800 176 820 130 840 108.2C860 86.3 880 88.7 900 98.8C920 109 940 127 950 136L960 145L960 541L950 541C940 541 920 541 900 541C880 541 860 541 840 541C820 541 800 541 780 541C760 541 740 541 720 541C700 541 680 541 660 541C640 541 620 541 600 541C580 541 560 541 540 541C520 541 500 541 480 541C460 541 440 541 420 541C400 541 380 541 360 541C340 541 320 541 300 541C280 541 260 541 240 541C220 541 200 541 180 541C160 541 140 541 120 541C100 541 80 541 60 541C40 541 20 541 10 541L0 541Z" fill="#940000"></path><path d="M0 177L10 171.7C20 166.3 40 155.7 60 161.3C80 167 100 189 120 184.3C140 179.7 160 148.3 180 145.3C200 142.3 220 167.7 240 186C260 204.3 280 215.7 300 222.7C320 229.7 340 232.3 360 232.3C380 232.3 400 229.7 420 219C440 208.3 460 189.7 480 176.5C500 163.3 520 155.7 540 160.2C560 164.7 580 181.3 600 188.2C620 195 640 192 660 190.5C680 189 700 189 720 184.3C740 179.7 760 170.3 780 178.2C800 186 820 211 840 208.2C860 205.3 880 174.7 900 165C920 155.3 940 166.7 950 172.3L960 178L960 541L950 541C940 541 920 541 900 541C880 541 860 541 840 541C820 541 800 541 780 541C760 541 740 541 720 541C700 541 680 541 660 541C640 541 620 541 600 541C580 541 560 541 540 541C520 541 500 541 480 541C460 541 440 541 420 541C400 541 380 541 360 541C340 541 320 541 300 541C280 541 260 541 240 541C220 541 200 541 180 541C160 541 140 541 120 541C100 541 80 541 60 541C40 541 20 541 10 541L0 541Z" fill="#9d1202"></path><path d="M0 161L10 160.7C20 160.3 40 159.7 60 170.3C80 181 100 203 120 201.5C140 200 160 175 180 165.3C200 155.7 220 161.3 240 164.7C260 168 280 169 300 171.5C320 174 340 178 360 182.8C380 187.7 400 193.3 420 201.7C440 210 460 221 480 222.5C500 224 520 216 540 204C560 192 580 176 600 181.8C620 187.7 640 215.3 660 232C680 248.7 700 254.3 720 245.3C740 236.3 760 212.7 780 197.2C800 181.7 820 174.3 840 185.3C860 196.3 880 225.7 900 225.2C920 224.7 940 194.3 950 179.2L960 164L960 541L950 541C940 541 920 541 900 541C880 541 860 541 840 541C820 541 800 541 780 541C760 541 740 541 720 541C700 541 680 541 660 541C640 541 620 541 600 541C580 541 560 541 540 541C520 541 500 541 480 541C460 541 440 541 420 541C400 541 380 541 360 541C340 541 320 541 300 541C280 541 260 541 240 541C220 541 200 541 180 541C160 541 140 541 120 541C100 541 80 541 60 541C40 541 20 541 10 541L0 541Z" fill="#a71f03"></path><path d="M0 291L10 290C20 289 40 287 60 276.7C80 266.3 100 247.7 120 247.8C140 248 160 267 180 262.5C200 258 220 230 240 228.2C260 226.3 280 250.7 300 262.2C320 273.7 340 272.3 360 273.7C380 275 400 279 420 270C440 261 460 239 480 226.8C500 214.7 520 212.3 540 219.7C560 227 580 244 600 249.5C620 255 640 249 660 244C680 239 700 235 720 237.3C740 239.7 760 248.3 780 251C800 253.7 820 250.3 840 257C860 263.7 880 280.3 900 273.7C920 267 940 237 950 222L960 207L960 541L950 541C940 541 920 541 900 541C880 541 860 541 840 541C820 541 800 541 780 541C760 541 740 541 720 541C700 541 680 541 660 541C640 541 620 541 600 541C580 541 560 541 540 541C520 541 500 541 480 541C460 541 440 541 420 541C400 541 380 541 360 541C340 541 320 541 300 541C280 541 260 541 240 541C220 541 200 541 180 541C160 541 140 541 120 541C100 541 80 541 60 541C40 541 20 541 10 541L0 541Z" fill="#b02a04"></path><path d="M0 320L10 312.7C20 305.3 40 290.7 60 277C80 263.3 100 250.7 120 244.5C140 238.3 160 238.7 180 242.2C200 245.7 220 252.3 240 256.5C260 260.7 280 262.3 300 271.3C320 280.3 340 296.7 360 303.8C380 311 400 309 420 311.7C440 314.3 460 321.7 480 324C500 326.3 520 323.7 540 309.2C560 294.7 580 268.3 600 268C620 267.7 640 293.3 660 308.7C680 324 700 329 720 318C740 307 760 280 780 266.5C800 253 820 253 840 259.2C860 265.3 880 277.7 900 289.8C920 302 940 314 950 320L960 326L960 541L950 541C940 541 920 541 900 541C880 541 860 541 840 541C820 541 800 541 780 541C760 541 740 541 720 541C700 541 680 541 660 541C640 541 620 541 600 541C580 541 560 541 540 541C520 541 500 541 480 541C460 541 440 541 420 541C400 541 380 541 360 541C340 541 320 541 300 541C280 541 260 541 240 541C220 541 200 541 180 541C160 541 140 541 120 541C100 541 80 541 60 541C40 541 20 541 10 541L0 541Z" fill="#b93505"></path><path d="M0 350L10 340.3C20 330.7 40 311.3 60 301C80 290.7 100 289.3 120 300.7C140 312 160 336 180 342.3C200 348.7 220 337.3 240 321C260 304.7 280 283.3 300 281.8C320 280.3 340 298.7 360 300.5C380 302.3 400 287.7 420 287.3C440 287 460 301 480 307.8C500 314.7 520 314.3 540 316C560 317.7 580 321.3 600 320.3C620 319.3 640 313.7 660 318.7C680 323.7 700 339.3 720 343.3C740 347.3 760 339.7 780 326.5C800 313.3 820 294.7 840 287.3C860 280 880 284 900 291.2C920 298.3 940 308.7 950 313.8L960 319L960 541L950 541C940 541 920 541 900 541C880 541 860 541 840 541C820 541 800 541 780 541C760 541 740 541 720 541C700 541 680 541 660 541C640 541 620 541 600 541C580 541 560 541 540 541C520 541 500 541 480 541C460 541 440 541 420 541C400 541 380 541 360 541C340 541 320 541 300 541C280 541 260 541 240 541C220 541 200 541 180 541C160 541 140 541 120 541C100 541 80 541 60 541C40 541 20 541 10 541L0 541Z" fill="#c23e05"></path><path d="M0 318L10 321.2C20 324.3 40 330.7 60 334.8C80 339 100 341 120 349.3C140 357.7 160 372.3 180 365.2C200 358 220 329 240 313.8C260 298.7 280 297.3 300 309.8C320 322.3 340 348.7 360 354.7C380 360.7 400 346.3 420 335.7C440 325 460 318 480 317C500 316 520 321 540 330.3C560 339.7 580 353.3 600 351.3C620 349.3 640 331.7 660 334.3C680 337 700 360 720 361.2C740 362.3 760 341.7 780 333.7C800 325.7 820 330.3 840 338C860 345.7 880 356.3 900 356.7C920 357 940 347 950 342L960 337L960 541L950 541C940 541 920 541 900 541C880 541 860 541 840 541C820 541 800 541 780 541C760 541 740 541 720 541C700 541 680 541 660 541C640 541 620 541 600 541C580 541 560 541 540 541C520 541 500 541 480 541C460 541 440 541 420 541C400 541 380 541 360 541C340 541 320 541 300 541C280 541 260 541 240 541C220 541 200 541 180 541C160 541 140 541 120 541C100 541 80 541 60 541C40 541 20 541 10 541L0 541Z" fill="#cb4807"></path><path d="M0 408L10 406C20 404 40 400 60 393C80 386 100 376 120 366C140 356 160 346 180 344.7C200 343.3 220 350.7 240 363.2C260 375.7 280 393.3 300 401C320 408.7 340 406.3 360 397.5C380 388.7 400 373.3 420 372C440 370.7 460 383.3 480 385.7C500 388 520 380 540 374.8C560 369.7 580 367.3 600 372.7C620 378 640 391 660 394.7C680 398.3 700 392.7 720 387C740 381.3 760 375.7 780 370.5C800 365.3 820 360.7 840 363.3C860 366 880 376 900 374.5C920 373 940 360 950 353.5L960 347L960 541L950 541C940 541 920 541 900 541C880 541 860 541 840 541C820 541 800 541 780 541C760 541 740 541 720 541C700 541 680 541 660 541C640 541 620 541 600 541C580 541 560 541 540 541C520 541 500 541 480 541C460 541 440 541 420 541C400 541 380 541 360 541C340 541 320 541 300 541C280 541 260 541 240 541C220 541 200 541 180 541C160 541 140 541 120 541C100 541 80 541 60 541C40 541 20 541 10 541L0 541Z" fill="#d45108"></path><path d="M0 384L10 389.3C20 394.7 40 405.3 60 412.7C80 420 100 424 120 425.7C140 427.3 160 426.7 180 420.2C200 413.7 220 401.3 240 402.8C260 404.3 280 419.7 300 427.2C320 434.7 340 434.3 360 434.8C380 435.3 400 436.7 420 433.8C440 431 460 424 480 418.8C500 413.7 520 410.3 540 405.8C560 401.3 580 395.7 600 390C620 384.3 640 378.7 660 386.7C680 394.7 700 416.3 720 421.5C740 426.7 760 415.3 780 406.3C800 397.3 820 390.7 840 394.3C860 398 880 412 900 413.5C920 415 940 404 950 398.5L960 393L960 541L950 541C940 541 920 541 900 541C880 541 860 541 840 541C820 541 800 541 780 541C760 541 740 541 720 541C700 541 680 541 660 541C640 541 620 541 600 541C580 541 560 541 540 541C520 541 500 541 480 541C460 541 440 541 420 541C400 541 380 541 360 541C340 541 320 541 300 541C280 541 260 541 240 541C220 541 200 541 180 541C160 541 140 541 120 541C100 541 80 541 60 541C40 541 20 541 10 541L0 541Z" fill="#dd5b09"></path><path d="M0 426L10 429.8C20 433.7 40 441.3 60 440.7C80 440 100 431 120 427.5C140 424 160 426 180 424.3C200 422.7 220 417.3 240 419.8C260 422.3 280 432.7 300 435.7C320 438.7 340 434.3 360 434C380 433.7 400 437.3 420 441.8C440 446.3 460 451.7 480 454.3C500 457 520 457 540 451C560 445 580 433 600 433.2C620 433.3 640 445.7 660 451.2C680 456.7 700 455.3 720 454.7C740 454 760 454 780 452.2C800 450.3 820 446.7 840 443C860 439.3 880 435.7 900 431.7C920 427.7 940 423.3 950 421.2L960 419L960 541L950 541C940 541 920 541 900 541C880 541 860 541 840 541C820 541 800 541 780 541C760 541 740 541 720 541C700 541 680 541 660 541C640 541 620 541 600 541C580 541 560 541 540 541C520 541 500 541 480 541C460 541 440 541 420 541C400 541 380 541 360 541C340 541 320 541 300 541C280 541 260 541 240 541C220 541 200 541 180 541C160 541 140 541 120 541C100 541 80 541 60 541C40 541 20 541 10 541L0 541Z" fill="#e6640b"></path><path d="M0 441L10 447.3C20 453.7 40 466.3 60 468.5C80 470.7 100 462.3 120 459.8C140 457.3 160 460.7 180 464.5C200 468.3 220 472.7 240 477C260 481.3 280 485.7 300 482C320 478.3 340 466.7 360 461.2C380 455.7 400 456.3 420 455C440 453.7 460 450.3 480 449.7C500 449 520 451 540 450.7C560 450.3 580 447.7 600 451.3C620 455 640 465 660 469.7C680 474.3 700 473.7 720 468.5C740 463.3 760 453.7 780 455.5C800 457.3 820 470.7 840 478C860 485.3 880 486.7 900 481C920 475.3 940 462.7 950 456.3L960 450L960 541L950 541C940 541 920 541 900 541C880 541 860 541 840 541C820 541 800 541 780 541C760 541 740 541 720 541C700 541 680 541 660 541C640 541 620 541 600 541C580 541 560 541 540 541C520 541 500 541 480 541C460 541 440 541 420 541C400 541 380 541 360 541C340 541 320 541 300 541C280 541 260 541 240 541C220 541 200 541 180 541C160 541 140 541 120 541C100 541 80 541 60 541C40 541 20 541 10 541L0 541Z" fill="#ee6e0d"></path><path d="M0 483L10 487C20 491 40 499 60 498.2C80 497.3 100 487.7 120 484.8C140 482 160 486 180 489.3C200 492.7 220 495.3 240 499.8C260 504.3 280 510.7 300 507.3C320 504 340 491 360 487C380 483 400 488 420 488.8C440 489.7 460 486.3 480 487.7C500 489 520 495 540 498.2C560 501.3 580 501.7 600 500.2C620 498.7 640 495.3 660 498C680 500.7 700 509.3 720 509.3C740 509.3 760 500.7 780 494C800 487.3 820 482.7 840 480.8C860 479 880 480 900 480.7C920 481.3 940 481.7 950 481.8L960 482L960 541L950 541C940 541 920 541 900 541C880 541 860 541 840 541C820 541 800 541 780 541C760 541 740 541 720 541C700 541 680 541 660 541C640 541 620 541 600 541C580 541 560 541 540 541C520 541 500 541 480 541C460 541 440 541 420 541C400 541 380 541 360 541C340 541 320 541 300 541C280 541 260 541 240 541C220 541 200 541 180 541C160 541 140 541 120 541C100 541 80 541 60 541C40 541 20 541 10 541L0 541Z" fill="#f7770f"></path></svg>